# xmcd
#
# Track frame offsets:
#	150
#	26655
#	49967
#	87943
#	124640
#	197731
#
# Disc length: 2890 seconds
#
# Revision: 0
# Processed by: cddbd v1.5.2PL0 Copyright (c) Steve Scherf et al.
# Submitted via: audiograbber 1.83.01
#
DISCID=4b0b4806
DTITLE=Grateful Dead - 93-03-25 Dean Smith Centre, Chapel Hill NC
DYEAR=1900
DGENRE=
TTITLE0=China Cat Sunflower
TTITLE1=I Know You Rider
TTITLE2=Men Smart, Women Smarter
TTITLE3=Wave To The Wind
TTITLE4=Terrapin Station
TTITLE5=Drums
EXTD=
EXTT0=
EXTT1=
EXTT2=
EXTT3=
EXTT4=
EXTT5=
PLAYORDER=
